<?xml version="1.0" encoding="utf-8"?>
<!-- Generator: Adobe Illustrator 22.1.0, SVG Export Plug-In . SVG Version: 6.00 Build 0)  -->
<svg version="1.1" id="Capa_1" xmlns="http://www.w3.org/2000/svg" xmlns:xlink="http://www.w3.org/1999/xlink" x="0px" y="0px"
	 viewBox="0 0 491.6 491.6" style="enable-background:new 0 0 491.6 491.6;" xml:space="preserve">
<style type="text/css">
	.st0{fill:#FFFFFF;}
</style>
<g>
	<g>
		<path class="st0" d="M245.8,0C153.8,0,79,74.8,79,166.8c0,37,21.8,93.2,68.5,176.9c31.9,57.1,63.6,105.4,65,107.4l22.9,34.8
			c2.3,3.5,6.2,5.6,10.4,5.6s8.1-2.1,10.4-5.6l22.9-34.8c1.3-2,32.8-49.9,65-107.4c46.7-83.7,68.5-140,68.5-176.9
			C412.6,74.8,337.8,0,245.8,0z M322.3,331.6c-31.7,56.8-62.7,103.9-64,105.8l-12.5,19l-12.5-19c-1.3-2-32.6-49.5-64-105.9
			C125.9,253.9,104,198.5,104,166.8C104,88.6,167.6,25,245.8,25s141.8,63.6,141.8,141.8C387.6,198.5,365.6,253.9,322.3,331.6z"/>
		<path class="st0" d="M245.8,73.3c-51,0-92.5,41.5-92.5,92.5s41.5,92.5,92.5,92.5s92.5-41.5,92.5-92.5S296.8,73.3,245.8,73.3z
			 M245.8,233.3c-37.2,0-67.5-30.3-67.5-67.5s30.3-67.5,67.5-67.5c37.2,0,67.5,30.3,67.5,67.5S283,233.3,245.8,233.3z"/>
	</g>
</g>
</svg>
