<?xml version="1.0" encoding="utf-8"?>
<!-- Generator: Adobe Illustrator 23.1.1, SVG Export Plug-In . SVG Version: 6.00 Build 0)  -->
<svg version="1.1" id="Layer_1" xmlns="http://www.w3.org/2000/svg" xmlns:xlink="http://www.w3.org/1999/xlink" x="0px" y="0px"
	 viewBox="0 0 1024 1024" style="enable-background:new 0 0 1024 1024;" xml:space="preserve">
<title></title>
<g id="icomoon-ignore">
</g>
<path d="M851,433.8c0,104.5-39.7,200.6-104.5,273.7l263.2,263.2l-39.7,39.7L706.9,747.2C633.8,812,537.6,851.7,433.2,851.7
	c-229.8,0-417.9-188-417.9-417.9S203.4,16,433.2,16S851,204,851,433.8L851,433.8z M433.2,795.3c200.6,0,361.4-160.9,361.4-361.4
	S633.8,72.4,433.2,72.4S71.7,233.3,71.7,433.8S232.6,795.3,433.2,795.3L433.2,795.3z"/>
</svg>
