<?xml version="1.0" encoding="utf-8"?>
<!-- Generator: Adobe Illustrator 22.1.0, SVG Export Plug-In . SVG Version: 6.00 Build 0)  -->
<svg version="1.1" id="Capa_1" xmlns="http://www.w3.org/2000/svg" xmlns:xlink="http://www.w3.org/1999/xlink" x="0px" y="0px"
	 viewBox="0 0 490.3 490.3" style="enable-background:new 0 0 490.3 490.3;" xml:space="preserve">
<style type="text/css">
	.st0{fill:#FCEFE8;}
</style>
<g>
	<path class="st0" d="M0,245.2c0.6,10.1,7.3,18.6,17,21.5L196.6,321l6.6,123.8c0.3,4.9,3.6,9.2,8.3,10.8c1.3,0.5,2.7,0.7,4,0.7
		c3.5,0,6.8-1.4,9.2-4.1l63.5-70.3l90,62.3c4,2.8,8.7,4.3,13.6,4.3c11.3,0,21.1-8,23.5-19.2L490,48.6c0.9-4.4-0.8-9-4.2-11.8
		c-3.5-2.9-8.2-3.6-12.4-1.9l-459,186.8C5.1,225.9-0.6,235.1,0,245.2z M226,414.1l-4.1-78.1l46,31.8L226,414.1z M391.4,423.6
		L227.6,310.2L457.3,88L391.4,423.6z M432.1,78.2L205,297.9L25.6,243.7L432.1,78.2z"/>
</g>
</svg>
