<?xml version="1.0" encoding="utf-8"?>
<!-- Generator: Adobe Illustrator 23.1.1, SVG Export Plug-In . SVG Version: 6.00 Build 0)  -->
<svg version="1.1" id="Layer_1" xmlns="http://www.w3.org/2000/svg" xmlns:xlink="http://www.w3.org/1999/xlink" x="0px" y="0px"
	 viewBox="0 0 841.2 1024" style="enable-background:new 0 0 841.2 1024;" xml:space="preserve">
<style type="text/css">
	.st0{fill:#086B00;}
</style>
<title>braceright</title>
<g id="icomoon-ignore">
</g>
<path class="st0" d="M419.7,509.6c-139.1,0-250.1-112.8-250.1-250.1c0-139.1,110.9-252,250.1-252s250.1,112.8,250.1,252
	C669.8,396.8,558.8,509.6,419.7,509.6z M419.7,58.3c-110.9,0-201.2,90.3-201.2,201.2c0,109.1,90.3,199.3,201.2,199.3
	s201.2-90.3,201.2-199.3C620.9,148.6,530.6,58.3,419.7,58.3L419.7,58.3z M419.7,609.2c229.4,0,400.5,161.7,400.5,376.1v26.3h-801
	v-26.3C19.2,770.9,190.3,609.2,419.7,609.2L419.7,609.2z M769.4,960.8C756.3,787.9,611.5,660,419.7,660S83.1,787.9,70,960.8H769.4z"
	/>
</svg>
