<?xml version="1.0" encoding="utf-8"?>
<!-- Generator: Adobe Illustrator 22.1.0, SVG Export Plug-In . SVG Version: 6.00 Build 0)  -->
<svg version="1.1" id="Layer_1" xmlns="http://www.w3.org/2000/svg" xmlns:xlink="http://www.w3.org/1999/xlink" x="0px" y="0px"
	 viewBox="0 0 287.5 98.7" style="enable-background:new 0 0 287.5 98.7;" xml:space="preserve">
<style type="text/css">
	.st0{fill:#006430;}
</style>
<g>
	<path class="st0" d="M72.8,17.2c-0.1-3.1-0.1-5.4-0.1-8.1s0-5,0.1-7.9H2.4c0.1,2.9,0.1,5.3,0.1,7.9s0,5-0.1,8.1
		c6.5-1.3,18.9-1.5,24.3-1.5c0.6,8.8,1.1,21.7,1.1,31.8c0,25.5-1.2,39.4-2.1,48h24.9c-1-8.6-3.3-22.5-3.3-48c0-10,0.6-23,1.1-31.8
		C53.8,15.6,66.2,15.9,72.8,17.2z"/>
	<path class="st0" d="M82.8,23.5c20.5,0,30.4,19.5,30.4,36.8s-9.9,36.8-30.4,36.8S52.4,77.6,52.4,60.3C52.5,43,62.3,23.5,82.8,23.5z
		 M82.8,36.3c-6.7,0-9.8,9.8-9.8,24s3.1,24,9.8,24c6.7,0,9.8-9.8,9.8-24C92.6,46.1,89.4,36.3,82.8,36.3z"/>
	<path class="st0" d="M131.6,25.2c1,6,5.9,29,11.1,46.7h0.3c5.4-19.8,8.6-38,9.8-46.7h16.9c-5.7,24.7-13.1,48.1-21.6,70.2h-14.9
		c-9.2-22.7-17.7-46.8-22-70.2C111.2,25.2,131.6,25.2,131.6,25.2z"/>
	<path class="st0" d="M190.6,70.4c2.2,7.3,7.9,13.5,15.2,12.7c4.8-0.5,9.5-3.8,13.6-8l7.4,6.8c-5.1,7.4-14.1,13.9-24.9,15.1
		c-16.3,1.7-31.6-11.4-33.8-32.3c-2.1-19.8,6.8-38.8,26.7-40.9c8.6-0.9,15.6,2.1,20.1,7.6c3.8,4.6,7.2,14.2,8.7,23.2L190.6,70.4z
		 M198.8,52.9c4.9-2.3,5.6-4.1,5.3-6.9c-0.6-5.5-3.8-11.1-9.2-10.5c-6.7,0.7-8.7,10.3-7.7,19.6c0.1,1.2,0.2,2.4,0.5,3.2L198.8,52.9z
		"/>
	<path class="st0" d="M249.6,70.4c2.2,7.3,7.9,13.5,15.2,12.7c4.8-0.5,9.5-3.8,13.6-8l7.4,6.8c-5.1,7.4-14.1,13.9-24.9,15.1
		c-16.3,1.7-31.6-11.4-33.8-32.3c-2.1-19.8,6.8-38.8,26.7-40.9c8.6-0.9,15.6,2.1,20.1,7.6c3.8,4.6,7.2,14.2,8.7,23.2L249.6,70.4z
		 M257.8,52.9c4.9-2.3,5.6-4.1,5.3-6.9c-0.6-5.5-3.8-11.1-9.2-10.5c-6.7,0.7-8.7,10.3-7.7,19.6c0.1,1.2,0.2,2.4,0.5,3.2L257.8,52.9z
		"/>
</g>
</svg>
