<?xml version="1.0" encoding="utf-8"?>
<!-- Generator: Adobe Illustrator 22.1.0, SVG Export Plug-In . SVG Version: 6.00 Build 0)  -->
<svg version="1.1" id="Capa_1" xmlns="http://www.w3.org/2000/svg" xmlns:xlink="http://www.w3.org/1999/xlink" x="0px" y="0px"
	 viewBox="0 0 407 365.6" style="enable-background:new 0 0 407 365.6;" xml:space="preserve">
<path d="M376,304.9c-16.6-48.8-60.5-82.4-111.1-87c-17,18-38,29.4-61.7,29.4c-23.8,0-44.8-11.4-61.7-29.4
	c-50.7,4.6-94.5,38.2-111.1,87l-9.2,27c-2.6,7.8-1.4,16.3,3.4,23c4.8,6.7,12.5,10.6,20.7,10.6h315.9c8.2,0,15.9-4,20.7-10.6
	c4.8-6.7,6-15.2,3.4-23L376,304.9z"/>
<path d="M120.8,97.8c0,60.6,36.9,125.6,82.4,125.6c45.5,0,82.4-65,82.4-125.6C285.6-27.8,120.8-28.1,120.8,97.8z"/>
</svg>
